<?xml version="1.0" encoding="UTF-8" standalone="no"?>
<!-- Created with Inkscape (http://www.inkscape.org/) -->

<svg
   xmlns:dc="http://purl.org/dc/elements/1.1/"
   xmlns:cc="http://creativecommons.org/ns#"
   xmlns:rdf="http://www.w3.org/1999/02/22-rdf-syntax-ns#"
   xmlns:svg="http://www.w3.org/2000/svg"
   xmlns="http://www.w3.org/2000/svg"
   xmlns:sodipodi="http://sodipodi.sourceforge.net/DTD/sodipodi-0.dtd"
   xmlns:inkscape="http://www.inkscape.org/namespaces/inkscape"
   width="138.52881mm"
   height="104.64823mm"
   viewBox="0 0 138.52881 104.64823"
   version="1.1"
   id="svg6419"
   sodipodi:docname="network_topology.svg"
   inkscape:version="0.92.3 (2405546, 2018-03-11)">
  <defs
     id="defs6413" />
  <sodipodi:namedview
     id="base"
     pagecolor="#ffffff"
     bordercolor="#666666"
     borderopacity="1.0"
     inkscape:pageopacity="0.0"
     inkscape:pageshadow="2"
     inkscape:zoom="1"
     inkscape:cx="-155.8531"
     inkscape:cy="141.37673"
     inkscape:document-units="mm"
     inkscape:current-layer="layer1"
     showgrid="false"
     inkscape:window-width="1920"
     inkscape:window-height="1029"
     inkscape:window-x="0"
     inkscape:window-y="25"
     inkscape:window-maximized="1"
     fit-margin-top="0"
     fit-margin-left="0"
     fit-margin-right="0"
     fit-margin-bottom="0" />
  <metadata
     id="metadata6416">
    <rdf:RDF>
      <cc:Work
         rdf:about="">
        <dc:format>image/svg+xml</dc:format>
        <dc:type
           rdf:resource="http://purl.org/dc/dcmitype/StillImage" />
        <dc:title />
      </cc:Work>
    </rdf:RDF>
  </metadata>
  <g
     inkscape:label="Layer 1"
     inkscape:groupmode="layer"
     id="layer1"
     transform="translate(-19.882337,-62.541025)">
    <path
       style="fill:#86ff8f;fill-opacity:0.53092783;fill-rule:evenodd;stroke:none;stroke-width:0.26458332px;stroke-linecap:butt;stroke-linejoin:miter;stroke-opacity:1"
       d="m 29.633333,147.77501 c -3.064176,-1.63075 -3.808589,-5.92297 -4.7625,-9.26042 -1.483426,-5.19007 -1.762882,-10.75964 -1.322917,-16.13959 0.414941,-5.07395 0.799622,-10.63567 3.704167,-14.81667 3.112418,-4.48023 8.89696,-8.704124 13.49375,-11.641663 5.531426,-3.534811 10.408421,-6.953836 16.933333,-7.672917 5.073146,-0.559088 11.056551,1.043543 14.552083,4.762501 3.120542,3.32 2.829386,8.713879 3.439583,13.229169 0.826871,6.11862 1.229459,12.42245 0.264584,18.52083 -0.684286,4.32495 -1.420362,9.07974 -4.233334,12.43542 -3.169778,3.78133 -8.266568,5.63557 -12.964583,7.14374 -9.301372,2.98596 -20.48049,8.02912 -29.104166,3.4396 z"
       id="path7253"
       inkscape:connector-curvature="0"
       sodipodi:nodetypes="ssssssssssss" />
    <g
       id="g7074"
       transform="translate(-9.7895833,-7.6729167)">
      <circle
         r="5.9135928"
         cy="134.67812"
         cx="74.215622"
         id="path6974"
         style="opacity:1;fill:#fbfbfb;fill-opacity:1;stroke:#000000;stroke-width:0.74299997;stroke-linecap:round;stroke-linejoin:round;stroke-miterlimit:4;stroke-dasharray:none;stroke-dashoffset:0;stroke-opacity:1" />
      <path
         style="stroke-width:0.26458332"
         id="path4586"
         d="m 76.160312,134.15954 c -0.17992,-0.91282 -0.98161,-1.59809 -1.94469,-1.59809 -0.76465,0 -1.42875,0.43392 -1.75948,1.06892 -0.7964,0.0847 -1.41552,0.75935 -1.41552,1.57692 0,0.87577 0.71173,1.5875 1.5875,1.5875 h 3.43958 c 0.73025,0 1.32292,-0.59267 1.32292,-1.32292 0,-0.6985 -0.5424,-1.26471 -1.23031,-1.31233 z"
         inkscape:connector-curvature="0" />
    </g>
    <path
       style="fill:#86f0ff;fill-opacity:0.53092783;fill-rule:evenodd;stroke:none;stroke-width:0.26458332px;stroke-linecap:butt;stroke-linejoin:miter;stroke-opacity:1"
       d="m 98.160415,98.827083 c 1.417839,3.945707 2.408085,8.953047 4.762495,11.641667 3.22719,3.68527 7.31973,5.43104 11.37709,6.35 6.86809,-0.077 17.18044,0.88965 22.75416,0 5.28116,-0.94698 9.49993,-1.24964 12.70001,-5.55625 2.12761,-2.8633 2.52571,-7.01901 2.38125,-10.58333 -0.1724,-4.253663 0.25215,-5.569943 -1.32292,-9.525003 -2.26658,-5.691462 -3.99222,-9.572395 -8.20209,-14.022916 -3.84935,-4.069396 -7.16149,-8.166518 -12.43541,-10.054167 -4.00729,-1.434294 -11.6417,-4.939248 -15.875,-4.497916 -5.43717,0.566838 -10.86067,0.204131 -15.610418,2.910416 -2.660022,1.515613 -5.027083,8.73125 -5.027083,9.789583 0,1.058334 -0.420821,6.595013 0.79375,11.641666 0.972541,4.041 2.298613,7.994737 3.704166,11.90625 z"
       id="path7255"
       inkscape:connector-curvature="0"
       sodipodi:nodetypes="ssccssssssssss" />
    <g
       id="g7070"
       transform="translate(2.6458333,-9.7895833)">
      <circle
         r="5.9135928"
         cy="115.49583"
         cx="108.74375"
         id="path6974-3"
         style="opacity:1;fill:#fbfbfb;fill-opacity:1;stroke:#000000;stroke-width:0.74299997;stroke-linecap:round;stroke-linejoin:round;stroke-miterlimit:4;stroke-dasharray:none;stroke-dashoffset:0;stroke-opacity:1" />
      <path
         style="stroke-width:0.26458332"
         id="path4586-5"
         d="m 110.68844,114.97726 c -0.17992,-0.91282 -0.98161,-1.59809 -1.94469,-1.59809 -0.76465,0 -1.42875,0.43392 -1.75948,1.06892 -0.7964,0.0847 -1.41552,0.75935 -1.41552,1.57692 0,0.87577 0.71173,1.5875 1.5875,1.5875 h 3.43958 c 0.73025,0 1.32292,-0.59267 1.32292,-1.32292 0,-0.6985 -0.5424,-1.26471 -1.23031,-1.31233 z"
         inkscape:connector-curvature="0" />
    </g>
    <g
       id="g903"
       transform="translate(100.18465,-7.6205768)">
      <circle
         r="5.9135928"
         cy="113.11458"
         cx="41.275002"
         id="path6974-2"
         style="opacity:1;fill:#bea5ff;fill-opacity:1;stroke:#000000;stroke-width:0.54299998;stroke-linecap:round;stroke-linejoin:round;stroke-miterlimit:4;stroke-dasharray:none;stroke-dashoffset:0;stroke-opacity:1" />
      <path
         style="stroke-width:0.26458332"
         id="path4645"
         d="m 43.656251,110.46875 h -4.7625 c -0.291042,0 -0.529167,0.23812 -0.529167,0.52916 v 3.175 c 0,0.29104 0.238125,0.52917 0.529167,0.52917 h 1.852083 v 0.52917 h -0.529167 v 0.52916 h 2.116667 v -0.52916 h -0.529167 v -0.52917 h 1.852084 c 0.291041,0 0.529166,-0.23813 0.529166,-0.52917 v -3.175 c 0,-0.29104 -0.238125,-0.52916 -0.529166,-0.52916 z m 0,3.70416 h -4.7625 v -3.175 h 4.7625 z"
         inkscape:connector-curvature="0" />
    </g>
    <g
       id="g887">
      <circle
         r="5.9135928"
         cy="138.77917"
         cx="33.602081"
         id="path6974-2-1"
         style="opacity:1;fill:#fff5a5;fill-opacity:1;stroke:#000000;stroke-width:0.54299998;stroke-linecap:round;stroke-linejoin:round;stroke-miterlimit:4;stroke-dasharray:none;stroke-dashoffset:0;stroke-opacity:1" />
      <g
         id="g882">
        <path
           inkscape:connector-curvature="0"
           d="m 35.983334,136.13333 h -4.7625 c -0.291042,0 -0.529167,0.23813 -0.529167,0.52917 v 3.175 c 0,0.29104 0.238125,0.52917 0.529167,0.52917 h 1.852083 v 0.52916 H 32.54375 v 0.52917 h 2.116667 v -0.52917 H 34.13125 v -0.52916 h 1.852084 c 0.291041,0 0.529166,-0.23813 0.529166,-0.52917 v -3.175 c 0,-0.29104 -0.238125,-0.52917 -0.529166,-0.52917 z m 0,3.70417 h -4.7625 v -3.175 h 4.7625 z"
           id="path4645-2"
           style="stroke-width:0.26458332;stroke:none;stroke-opacity:1" />
      </g>
    </g>
    <g
       id="g919">
      <circle
         r="5.9135928"
         cy="100.41458"
         cx="59.53125"
         id="path6974-2-0"
         style="opacity:1;fill:#ffb495;fill-opacity:1;stroke:#000000;stroke-width:0.54299998;stroke-linecap:round;stroke-linejoin:round;stroke-miterlimit:4;stroke-dasharray:none;stroke-dashoffset:0;stroke-opacity:1" />
      <path
         style="stroke-width:0.26458332"
         id="path4645-9"
         d="m 61.912501,97.76875 h -4.7625 c -0.291042,0 -0.529167,0.238125 -0.529167,0.529167 v 3.175003 c 0,0.29104 0.238125,0.52916 0.529167,0.52916 h 1.852083 v 0.52917 h -0.529167 v 0.52917 h 2.116667 v -0.52917 h -0.529167 v -0.52917 h 1.852084 c 0.291041,0 0.529166,-0.23812 0.529166,-0.52916 v -3.175003 c 0,-0.291042 -0.238125,-0.529167 -0.529166,-0.529167 z m 0,3.70417 h -4.7625 v -3.175003 h 4.7625 z"
         inkscape:connector-curvature="0" />
    </g>
    <g
       id="g879"
       transform="translate(26.458331,5.2916667)">
      <circle
         r="5.9135928"
         cy="78.189583"
         cx="102.39375"
         id="path6974-2-6"
         style="opacity:1;fill:#fff5a5;fill-opacity:1;stroke:#000000;stroke-width:0.54299998;stroke-linecap:round;stroke-linejoin:round;stroke-miterlimit:4;stroke-dasharray:none;stroke-dashoffset:0;stroke-opacity:1" />
      <path
         style="stroke:none;stroke-width:0.26458332;stroke-opacity:1"
         id="path4645-0"
         d="m 104.775,75.54375 h -4.7625 c -0.291041,0 -0.529166,0.238125 -0.529166,0.529167 v 3.175 c 0,0.291041 0.238125,0.529166 0.529166,0.529166 h 1.85208 v 0.529167 h -0.52916 v 0.529167 h 2.11666 V 80.30625 h -0.52916 v -0.529167 h 1.85208 c 0.29104,0 0.52917,-0.238125 0.52917,-0.529166 v -3.175 c 0,-0.291042 -0.23813,-0.529167 -0.52917,-0.529167 z m 0,3.704167 h -4.7625 v -3.175 h 4.7625 z"
         inkscape:connector-curvature="0" />
    </g>
    <g
       id="g907"
       transform="translate(-24.620777,-4.9625716)">
      <circle
         r="5.9135928"
         cy="82.95208"
         cx="127.79375"
         id="path6974-2-2"
         style="opacity:1;fill:#bea5ff;fill-opacity:1;stroke:#000000;stroke-width:0.54299998;stroke-linecap:round;stroke-linejoin:round;stroke-miterlimit:4;stroke-dasharray:none;stroke-dashoffset:0;stroke-opacity:1" />
      <path
         style="stroke-width:0.26458332"
         id="path4645-6"
         d="m 130.175,80.30625 h -4.7625 c -0.29104,0 -0.52917,0.238125 -0.52917,0.529167 v 3.175 c 0,0.291041 0.23813,0.529166 0.52917,0.529166 h 1.85208 v 0.529167 h -0.52916 v 0.529167 h 2.11666 V 85.06875 h -0.52916 v -0.529167 h 1.85208 c 0.29104,0 0.52917,-0.238125 0.52917,-0.529166 v -3.175 c 0,-0.291042 -0.23813,-0.529167 -0.52917,-0.529167 z m 0,3.704167 h -4.7625 v -3.175 h 4.7625 z"
         inkscape:connector-curvature="0" />
    </g>
    <g
       id="g915"
       transform="translate(-98.645821,6.4820865)">
      <circle
         r="5.9135928"
         cy="105.44167"
         cx="141.28751"
         id="path6974-2-8"
         style="opacity:1;fill:#ffb495;fill-opacity:1;stroke:#000000;stroke-width:0.54299998;stroke-linecap:round;stroke-linejoin:round;stroke-miterlimit:4;stroke-dasharray:none;stroke-dashoffset:0;stroke-opacity:1" />
      <path
         style="stroke-width:0.26458332"
         id="path4645-7"
         d="m 143.66875,102.79583 h -4.7625 c -0.29104,0 -0.52917,0.23813 -0.52917,0.52917 v 3.175 c 0,0.29104 0.23813,0.52917 0.52917,0.52917 h 1.85208 v 0.52916 h -0.52916 v 0.52917 h 2.11666 v -0.52917 h -0.52916 v -0.52916 h 1.85208 c 0.29104,0 0.52917,-0.23813 0.52917,-0.52917 v -3.175 c 0,-0.29104 -0.23813,-0.52917 -0.52917,-0.52917 z m 0,3.70417 h -4.7625 v -3.175 h 4.7625 z"
         inkscape:connector-curvature="0" />
    </g>
    <circle
       style="opacity:1;fill:#fbfbfb;fill-opacity:1;stroke:#000000;stroke-width:0.54300004;stroke-linecap:round;stroke-linejoin:round;stroke-miterlimit:4;stroke-dasharray:none;stroke-dashoffset:0;stroke-opacity:1"
       id="path6974-2-8-9"
       cx="98.160416"
       cy="134.54584"
       r="5.9135928" />
    <path
       inkscape:connector-curvature="0"
       d="m 100.32999,132.40271 0.21167,-0.21167 c -0.37042,-0.37042 -0.846666,-0.55562 -1.322916,-0.55562 -0.47625,0 -0.9525,0.1852 -1.322916,0.55562 l 0.211666,0.21167 c 0.3175,-0.29104 0.714375,-0.44979 1.11125,-0.44979 0.396875,0 0.793746,0.15875 1.111246,0.44979 z m -0.23812,0.21166 c -0.238126,-0.23812 -0.555626,-0.37041 -0.873126,-0.37041 -0.3175,0 -0.635,0.13229 -0.873125,0.37041 l 0.211667,0.21167 c 0.185208,-0.18521 0.423333,-0.26458 0.661458,-0.26458 0.238125,0 0.47625,0.0794 0.661459,0.26458 z m -0.0794,1.66688 h -0.529167 v -1.05833 h -0.529167 v 1.05833 h -2.645833 c -0.291042,0 -0.529167,0.23812 -0.529167,0.52917 v 1.05833 c 0,0.29104 0.238125,0.52917 0.529167,0.52917 h 3.704167 c 0.29104,0 0.52917,-0.23813 0.52917,-0.52917 v -1.05833 c 0,-0.29105 -0.23813,-0.52917 -0.52917,-0.52917 z m -2.910417,1.32292 H 96.572881 V 135.075 h 0.529167 z m 0.926041,0 H 97.498923 V 135.075 h 0.529166 z m 0.926042,0 H 98.424964 V 135.075 h 0.529167 z"
       id="path5247"
       style="stroke-width:0.26458332" />
    <circle
       style="opacity:1;fill:#fbfbfb;fill-opacity:1;stroke:#000000;stroke-width:0.5430001;stroke-linecap:round;stroke-linejoin:round;stroke-miterlimit:4;stroke-dasharray:none;stroke-dashoffset:0;stroke-opacity:1"
       id="path6974-2-8-9-2"
       cx="132.29167"
       cy="161.00417"
       r="5.9135928" />
    <g
       transform="matrix(0.03307291,0,0,0.03307291,127.52917,151.6373)"
       id="g5853">
      <g
         id="g5851">
        <path
           style="stroke:none"
           inkscape:connector-curvature="0"
           d="m 288,283.2188 q 0,59.625 -42.1875,101.8124 Q 203.625,427.2188 144,427.2188 84.375,427.2188 42.1875,385.0312 0,342.8438 0,283.2188 0,223.5938 42.1875,181.4062 84.375,139.2188 144,139.2188 q 59.625,0 101.8125,42.1874 Q 288,223.5938 288,283.2188 Z M 197.5781,153.2812 q -4.0781,-1.6874 -7.3125,-2.8124 0.5625,0.9843 1.9688,3.0937 h 1.125 q 0.7031,0 2.1094,-0.1406 1.4062,-0.1407 2.1093,-0.1407 z m 76.0781,87.4688 q -0.2812,-3.0938 -2.8124,-7.875 -0.7032,0.2812 -0.7032,1.125 0,-0.9844 3.5156,6.75 z M 163.6875,154.2656 q -1.9687,-0.2812 -5.7656,-0.9844 0,1.125 0.5625,1.6876 1.8281,0 5.2031,-0.7032 z m 45.9844,52.1719 v -1.9687 q -2.8125,-3.5157 -7.3125,-11.1094 -0.1406,-0.1406 -5.625,-4.2188 0.4218,-1.5468 2.25,-2.5312 -0.1406,-0.8438 -0.4219,-2.5313 h -3.2344 q -2.3906,0 -5.2031,4.2188 2.9531,3.9375 9.8438,9.8437 l -0.8438,0.8438 q -0.1406,1.5468 0.4219,4.6406 0.2812,0.5625 3.4453,1.9688 3.164,1.4062 3.8672,1.4062 0.5625,0 1.4765,-0.2812 0.9141,-0.2813 1.336,-0.2813 z m -28.125,-12.2344 q -4.0781,-2.1093 -11.25,-7.5937 0.8437,-1.125 2.6719,-3.375 h -2.3907 q -1.4062,0 -4.2187,1.9687 0.8437,0.5625 2.6718,1.5469 -2.5312,1.4062 -4.2187,1.4062 -0.9844,0 -3.3047,-2.25 -2.3203,-2.25 -3.0234,-2.25 -0.8438,0 -3.8672,3.7266 -3.0234,3.7266 -3.0234,4.5703 0,0.9844 2.25,3.9375 -1.4063,0.2813 -4.0782,1.125 h 4.3594 q 0.7031,-0.9844 5.3438,-2.3906 4.2187,-1.125 5.9062,-1.125 1.9688,0 5.4844,1.3359 3.5156,1.336 5.4844,1.336 3.6562,0 5.2031,-1.9688 z m -35.2969,-39.9375 -3.0938,-0.5625 q -0.7031,1.4063 -3.5156,2.461 -2.8125,1.0547 -3.2344,2.7421 l 1.6876,1.6876 q -0.7032,0.5624 -0.7032,1.125 -0.2812,-0.1407 -0.9844,-0.1407 -1.2656,0 -2.3203,1.8281 -1.0547,1.8282 -1.6171,2.25 -2.25,0.5626 -6.8907,1.5469 1.6875,1.6875 2.9531,1.6875 0.9844,0 2.8829,-0.7031 1.8984,-0.7031 2.8828,-0.7031 0.4219,0 0.9843,0.4922 0.5626,0.4922 0.9844,0.4922 0.9844,0 2.9532,-1.4063 3.2343,-6.6094 3.2343,-6.1875 0,-0.4219 -1.125,-1.6875 0,-0.1406 0.4219,-2.5313 2.3906,-1.8281 4.5,-2.3906 z m 25.0312,58.2188 q 0,-0.7032 -0.7031,-1.2656 0.2813,-0.5626 0.2813,-1.2657 0,-3.5156 -2.25,-3.5156 -0.8438,0 -2.0391,0.9141 -1.1953,0.914 -2.0391,0.914 -0.9843,0 -2.4609,-0.914 -1.4765,-0.9141 -2.4609,-0.9141 -0.5625,0 -1.4766,0.7031 -0.914,0.7032 -1.4766,0.7032 -1.4062,0 -9.5624,-5.4844 v -2.8125 q 0.7031,-1.2657 2.6718,-2.25 -3.2344,-1.125 -4.6406,-1.125 -1.9688,0 -2.6719,1.8281 -0.8437,-0.2812 -2.5312,-0.5625 1.6875,3.375 3.5156,4.7813 -0.4219,1.125 -1.2656,1.125 -0.4219,0 -1.4063,-0.5626 -0.1406,3.6563 -1.9687,3.6563 -0.9844,0 -2.8125,-3.6563 1.8281,0.2813 3.9375,0.2813 -0.8438,-0.5625 -4.7813,-1.6875 -0.4218,-0.9844 -1.9687,-3.2344 -0.5625,-0.8437 -0.5625,-4.3594 -2.9532,-1.5468 -8.5782,-5.3437 -0.8437,-1.2656 -2.8124,-3.5156 -1.9688,0.1406 -1.9688,2.1093 0,2.9532 10.8281,9.7032 L 129.375,198 l -2.6719,-1.4062 -0.5625,0.8437 q 0.2813,0.8437 0.7032,2.6719 -1.9688,1.8281 -4.5,2.5312 -1.2657,2.9532 -1.9688,2.9532 -1.2656,0 -5.0625,-2.9532 0.8437,-1.125 1.8281,-1.125 0.2813,0 0.8438,0.211 0.5625,0.2109 0.8437,0.2109 -0.1406,0 3.7969,-0.4219 l 1.6875,-1.5468 q -0.2813,-1.6876 -2.8125,-3.5157 -1.9688,-1.2656 -3.9375,-2.6719 -1.2656,-1.125 -3.7969,-4.9218 -1.125,-1.6875 -2.1094,-1.6875 -0.9843,0 -3.2343,1.4062 -2.25,1.4063 -3.2344,1.4063 -0.7031,0 -1.8984,-0.4922 Q 102.0938,189 101.3906,189 99.9844,189 99,192.0938 q -3.7969,1.2656 -8.8594,5.0624 -0.1406,0.7032 -0.4922,1.8985 -0.3515,1.1953 -3.3046,3.1641 -2.9532,1.9687 -3.9376,1.9687 -0.4218,0 -1.2656,-0.2109 -0.8437,-0.211 -1.2656,-0.211 -1.8281,0 -3.9375,2.1094 2.3906,1.9688 5.3437,1.9688 0.9844,0 4.5,-1.8282 3.5157,-1.8281 4.5,-1.8281 1.4063,0 4.2188,0.2813 2.8125,0.2812 4.2188,0.2812 1.6874,0 4.9218,-0.7031 3.2344,-0.7031 4.9219,-0.7031 0.5625,0 2.6719,1.4062 -0.2813,0.9844 -1.2656,1.9688 0.8437,0.8437 0.8437,2.25 -1.125,0.9843 -3.0937,3.0937 l 1.5468,0.9844 q 0.7032,1.4062 4.2188,1.9687 3.0937,0.4219 3.0937,1.4063 l 0.5625,0.4219 0.4219,-0.4219 q 0.1406,-0.1407 0.4219,-0.1407 0,0 4.0078,3.375 4.0078,3.375 6.539,3.375 2.8126,0 2.9532,-3.5859 0.1406,-3.5859 5.0625,-3.5859 1.2656,0 6.3281,4.0781 l 0.2812,-1.2656 q 5.7657,2.5312 4.6407,2.5312 0.4219,0 0.7734,-0.4219 0.3516,-0.4218 0.9141,-0.4218 0.9844,0 2.6015,0.7031 1.6172,0.7031 2.6016,0.7031 1.2656,0 3.7969,-0.914 2.5312,-0.9141 3.7968,-0.9141 0.8438,0 1.125,1.0547 0.2813,1.0547 0.7032,2.1797 v -1.4063 q 1.6875,-0.4218 4.7812,-1.8281 2.3906,-8.0156 2.3906,-7.4531 z m 113.2032,70.7344 q 0,-6.3282 -0.5625,-12.6563 l -0.1407,1.2656 h -0.8437 l 0.5625,-3.5156 h 0.1406 l -0.2812,-2.9531 -0.4219,1.9687 q -1.2656,-11.8125 -8.5781,-26.4375 -1.9688,0.8438 -1.9688,2.9532 0,0.5624 0.211,1.6874 0.2109,1.125 0.2109,1.6876 0,2.3906 -1.3359,6.9609 -1.336,4.5703 -1.336,6.9609 0,2.25 0.9141,6.6797 0.9141,4.4297 0.9141,6.6797 0,0.7031 -2.3907,7.1719 -1.6875,-1.5469 -5.7656,-14.9063 -1.2656,-2.25 -3.375,-6.75 -1.5469,-4.0781 -3.5156,-13.7812 -0.9844,0.1406 -1.5469,1.8281 h -1.5469 l -3.2343,-3.2344 q 0.2812,-0.9843 1.2656,-1.8281 -2.3906,-0.4219 -5.4844,-3.7266 -3.0938,-3.3046 -3.0938,-3.3046 -1.125,0 -3.2343,0.7031 -2.1094,0.7031 -3.2344,0.7031 0.5625,0 -10.4063,-1.4062 -0.4218,-0.5626 0,-1.8282 -2.25,-1.6875 -2.9531,-1.6875 -0.7031,0 -1.6875,0.9141 -0.9844,0.914 -1.6875,0.914 -2.8125,0 -4.3593,-3.2343 l 0.1406,-0.1407 -0.7032,-0.2812 -0.4218,0.4219 h -0.5625 q -1.4063,0 -3.7969,-2.6719 -1.5469,-1.8281 -3.2344,-3.7969 l -1.6875,-0.7031 -1.9687,2.1094 q 3.2344,3.2344 8.2968,10.5468 l 1.4063,-0.8437 q 0.8437,2.6719 1.125,4.5 0.7031,0.8437 2.5313,0.8437 3.2343,0 4.289,-1.8984 1.0547,-1.8984 2.1797,-4.0078 0.1406,0.1406 1.6875,2.8125 0.7031,1.2656 4.9219,3.6563 3.5156,1.8281 3.5156,4.5 0,0.8437 -0.9844,2.8124 -0.9843,1.9688 -1.125,2.6719 -0.1406,1.4063 -0.2812,4.0781 -1.9688,1.9688 -5.3438,6.1876 -6.4687,0.1406 -5.7656,4.5 -2.6719,1.6874 -8.0156,4.9218 -4.3594,1.6875 -13.2188,5.0625 -1.8281,-2.25 -3.164,-7.8047 -1.336,-5.5546 -3.8672,-8.5078 -1.8281,-2.1094 -2.1094,-5.2031 -4.5,-1.8281 -6.8906,-9.1406 -0.2813,-0.9844 -5.0625,-6.1875 l 0.8437,-1.8282 -0.7031,-0.2812 h -0.5625 l -0.4219,0.4219 q -0.2812,-1.2657 -1.125,-3.6563 -5.625,-3.9375 -4.7812,-3.9375 -1.2656,0 -2.1094,0.8438 -1.9688,-1.4063 -3.375,-4.5 2.6719,6.4687 8.2969,15.1875 1.9687,2.6718 5.0625,8.2968 0.1406,3.0938 2.6718,8.7188 1.6876,0.7031 2.5313,3.2344 1.2656,3.5156 1.6875,4.0781 0.4219,0.5625 7.0312,5.9063 4.7813,3.7968 4.2188,7.1718 0.9844,1.125 2.9531,3.5156 7.4531,-0.4218 18.2813,-5.4843 0.5625,0.5625 0.5625,2.25 0,1.6875 -5.625,15.6093 -0.5625,2.25 -2.6719,6.3282 -2.1094,2.6718 -14.2031,14.0625 -8.8594,8.2969 -11.8125,15.8906 v 0.4219 q 0,0.9844 0.4218,1.5468 l -0.9843,0.7032 1.125,1.5468 q 0,0 0,4.7813 0,2.1094 0.2812,3.375 1.6875,2.1094 1.6875,8.0156 0,8.5781 -5.4844,10.9688 -3.2343,1.4062 -13.2187,8.0156 0,0.8437 0.5625,2.5313 0.5625,1.6874 0.5625,2.5312 0,0.2812 -0.5625,3.9375 -2.6719,1.2656 -7.7344,4.3594 -0.2812,3.2343 -0.9844,4.0781 -1.6874,1.2656 -3.2343,2.5312 -7.0313,6.1876 -13.0781,7.7344 -4.2188,1.125 -15.0469,1.125 -5.9063,0 -5.0625,-5.2031 -3.6563,-3.375 -9.5625,-11.1094 -0.5625,-2.9531 -2.5313,-8.4375 -0.2812,-0.4218 -5.3437,-7.7344 -3.375,-4.7812 -3.375,-8.7187 0,-2.6719 2.4609,-6.5391 2.461,-3.8672 2.461,-5.414 0,-0.9844 -1.125,-2.7422 -1.125,-1.7578 -1.125,-2.7422 0,-0.5625 0.5624,-2.1094 -1.2656,-3.6562 -4.5,-10.5468 -0.2812,-0.4219 -5.2031,-5.9063 -3.375,-3.9375 -3.375,-6.6094 0,-1.8281 1.336,-5.414 1.3359,-3.586 1.3359,-5.5547 0,-6.0469 -4.7812,-6.0469 -0.7032,0 -1.8985,0.7031 -1.1953,0.7032 -1.8984,0.7032 -1.5469,0 -3.375,-2.3907 -0.9844,-2.25 -1.8281,-4.5 -0.7032,-1.2656 -6.1876,-1.2656 -2.5312,0 -6.539,1.6172 -4.0078,1.6172 -5.2734,1.6172 -0.8438,0 -3.1641,-1.125 -2.3203,-1.125 -3.8672,-1.125 -0.9844,0 -2.7422,0.6328 -1.7578,0.6328 -2.7422,0.6328 -1.8281,0 -5.4843,-5.1328 -3.6563,-5.1328 -4.6407,-5.6953 -0.2812,-1.9688 -1.2656,-5.9063 -0.1406,-0.4219 -1.5469,-2.6719 -0.9844,-1.6874 -0.8437,-2.9531 l 0.1406,-0.9843 q -2.5313,-1.9688 -2.5313,-5.4844 0,-6.75 5.2032,-13.9219 0.1406,-2.8125 -0.1406,-8.5781 0.8437,-1.8282 2.6718,-5.3438 1.6875,-1.4062 4.6406,-4.5 1.5469,-2.6718 5.625,-7.4531 3.0938,-0.9844 8.7188,-6.4687 0.7031,-1.6876 2.5312,-4.9219 3.6563,-2.25 10.5469,-8.8594 v -1.6875 q -0.7031,-0.7031 -3.9375,-1.2656 0.1406,-1.8282 1.4063,-5.2032 0.8437,-0.7031 2.3906,-2.25 1.2656,-2.25 3.7969,-6.6093 1.2656,-0.5625 2.3906,-0.5625 1.4062,0 4.2891,0.4218 2.8828,0.4219 4.289,0.4219 1.2657,0 3.1641,-2.039 1.8984,-2.0391 1.8984,-3.3047 0,-2.8125 -3.0937,-4.2188 1.5469,-1.6875 3.0937,-1.6875 0.2813,0 0.7032,0.2813 0.4218,0.2812 0.7031,0.2812 0.5625,0 1.125,-0.914 0.5625,-0.9141 1.125,-0.9141 0.2812,0 0.7734,0.2109 0.4922,0.211 0.7735,0.211 2.25,0 4.2187,-1.9688 -0.5625,-0.2812 -1.2656,-0.2812 1.5469,0 -9.8438,0.9844 0.8438,-0.5626 3.0938,-1.8282 l -0.4219,-1.6875 q 1.8281,-1.2656 5.7656,-3.2343 -0.2812,-0.9844 -1.5468,-1.4063 -0.7032,0.2813 -0.9844,1.2656 -1.2656,1.125 -3.7969,3.0938 -0.7031,0.4219 -5.4844,1.5469 l -1.125,-0.7032 q 0.2813,-0.1406 3.9375,-3.5156 2.25,-2.1094 4.9219,-2.1094 0.2813,0 0.8437,0.211 0.5626,0.2109 0.8438,0.2109 1.4062,0 1.9688,-2.4609 0.5624,-2.461 2.3906,-2.461 l 0.5625,0.4219 0.8437,-0.8437 h 1.8282 l 1.125,1.5468 q -2.6719,0.8438 -2.6719,2.9532 0,-0.2813 0.4219,3.2343 0.4218,0.7031 1.2656,0.8438 0,0.4219 -1.6875,2.8125 0.1406,0.7031 0.8437,0.7031 0.1406,0 4.9219,-2.25 4.7813,-2.25 7.3125,-2.3906 0.4219,-1.5469 1.8281,-4.2188 1.5469,-0.5625 4.3594,-1.8281 0.1406,0.4219 -0.1406,2.25 l 1.6875,0.8438 q 1.125,-0.1407 1.125,-1.4063 0,-1.2656 -1.6875,-3.5156 -2.3907,1.2656 -4.3594,1.2656 h -1.9687 q -0.5626,-1.125 -0.5626,-1.5469 0,-3.0937 7.1719,-5.2031 8.1563,-2.5313 9.5625,-5.0625 6.4688,-2.1094 11.5313,-2.1094 3.375,0 9.6328,2.25 6.2578,2.25 8.6484,2.25 1.2657,0 1.8281,-0.5625 l -1.2656,-1.125 q 2.3906,1.2657 3.7969,1.2657 -0.8437,0 2.9531,-1.125 -0.4218,0.1406 2.5313,0.1406 0.9843,0 1.8281,-0.1406 -0.9844,-0.9844 -5.0625,-1.8282 -3.5156,-0.7031 -4.3594,-2.6718 0.5625,-0.9844 2.3907,-1.9688 -12.9376,-2.3906 -25.5938,-2.3906 -6.3281,0 -12.6562,0.5625 L 132.75,144 q -5.625,0.5625 -33.75,8.0156 -8.7188,2.25 -20.3906,7.7344 l -0.2813,-0.7031 q -14.2031,7.5937 -26.2969,18 l 0.1407,1.2656 -1.2657,0.5625 -0.4218,-0.5625 Q 28.125,198.2812 15.8203,225.7734 3.5156,253.2656 3.5156,283.2188 q 0,8.2968 0.8438,15.75 0.4218,-1.8282 1.125,-3.375 4.7812,12.6562 4.9218,13.5 1.5469,5.3437 1.5469,14.4843 0,2.5313 -0.4219,3.375 -0.4218,-1.5469 -2.1093,-3.375 13.3593,44.4375 50.7656,72.2813 37.4063,27.8437 83.8125,27.8437 58.2188,0 99.3516,-41.1328 41.1328,-41.1328 41.1328,-99.3515 z m -124.875,38.3906 q 0,-0.4219 -0.2813,-0.9844 -0.2812,-0.5625 -0.2812,-0.8438 -4.3594,0.1407 -4.3594,3.375 0,0.9844 0.2813,2.8126 0.2812,1.8281 0.2812,2.6718 h 1.5469 q 0.7031,-0.9844 2.25,-2.8125 0,-0.1406 -0.1407,-0.5625 0,-0.5625 0.3516,-1.8281 0.3516,-1.2656 0.3516,-1.8281 z M 146.3906,144.4219 q -0.7031,0 -2.1094,0.5625 -1.4062,0.5625 -2.1093,0.5625 -0.7031,0 -1.8281,-1.125 z m 128.25,141.1875 q -0.4218,0 -1.125,0.9844 -0.4218,-0.4219 -1.5468,-2.8126 0.1406,-2.5312 0.8437,-7.4531 1.8281,5.3438 1.8281,5.0625 z M 167.625,209.6719 q -0.4219,0.8437 -3.9375,2.5312 0,-0.2812 -0.9844,-0.9843 0.2813,-0.2813 3.375,-1.5469 z m 58.2188,66.0937 h -1.6876 l 0.9844,-1.2656 q 0.4219,0.2812 0.7032,1.2656 z M 107.1562,152.8594 q -2.5312,2.9531 -6.75,2.9531 h -2.1093 l -0.1407,-0.9844 q 1.125,-1.9687 2.3907,-1.9687 z m 40.7813,57.375 q -0.5625,0.7031 -2.25,0.7031 -2.1094,0 -4.3594,-1.6875 h 2.9531 q 0.5626,0 1.6172,0.3516 1.0547,0.3515 1.6172,0.3515 z m 45.4219,53.2968 -0.5625,0.4219 -0.5625,-0.7031 0.4218,-0.4219 z M 111.6562,192.375 q -0.4218,0.5625 -0.9843,4.3594 -0.4219,2.5312 -2.8125,3.0937 -0.5625,-0.4219 -0.5625,-1.4062 0,0.9843 0.5625,-2.9531 0.7031,-0.8438 1.8281,-1.4063 0,-2.9531 1.4063,-3.2344 z m -15.0468,5.2031 -0.2813,0.8438 q -1.125,0 -1.125,-1.2657 0.7031,-0.1406 1.125,-0.5624 z M 211.5,352.8281 q 0,2.9531 -5.3438,13.0781 -5.0624,9.4219 -7.664,12.3047 -2.6016,2.8829 -5.6953,2.8829 -3.2344,0 -3.2344,-6.0469 0,-0.9844 2.0391,-3.5157 2.039,-2.5312 2.3203,-3.6562 0,0 0,-3.375 0,-3.6562 2.7422,-4.8516 2.7421,-1.1953 5.5547,-2.3203 1.125,-0.9843 3.375,-2.9531 l 0.2812,-1.4062 q 1.5469,-1.6876 4.6406,-4.9219 Q 211.5,351 211.5,352.8281 Z"
           id="path5849" />
      </g>
    </g>
    <path
       style="fill:none;fill-rule:evenodd;stroke:#000000;stroke-width:0.26458332px;stroke-linecap:butt;stroke-linejoin:miter;stroke-opacity:1"
       d="m 39.126301,136.66906 19.77552,-7.55375"
       id="path7231"
       inkscape:connector-type="polyline"
       inkscape:connector-curvature="0"
       inkscape:connection-end="#g7074" />
    <path
       style="fill:none;fill-rule:evenodd;stroke:#000000;stroke-width:0.26458332px;stroke-linecap:butt;stroke-linejoin:miter;stroke-opacity:1"
       d="m 46.345851,116.15709 13.009337,7.8056"
       id="path7233"
       inkscape:connector-type="polyline"
       inkscape:connector-curvature="0"
       inkscape:connection-end="#g7074" />
    <path
       style="fill:none;fill-rule:evenodd;stroke:#000000;stroke-width:0.26458332px;stroke-linecap:butt;stroke-linejoin:miter;stroke-opacity:1"
       d="m 60.601823,106.2304 2.753643,14.95898"
       id="path7235"
       inkscape:connector-type="polyline"
       inkscape:connector-curvature="0"
       inkscape:connection-end="#g7074" />
    <path
       style="fill:none;fill-rule:evenodd;stroke:#000000;stroke-width:0.26458332px;stroke-linecap:butt;stroke-linejoin:miter;stroke-opacity:1"
       d="m 104.23131,83.810345 5.32072,16.275135"
       id="path7239"
       inkscape:connector-type="polyline"
       inkscape:connector-curvature="0"
       inkscape:connection-end="#g7070" />
    <path
       style="fill:none;fill-rule:evenodd;stroke:#000000;stroke-width:0.26458332px;stroke-linecap:butt;stroke-linejoin:miter;stroke-opacity:1"
       d="m 124.33549,87.749017 -9.48765,13.160293"
       id="path7241"
       inkscape:connector-type="polyline"
       inkscape:connector-curvature="0"
       inkscape:connection-end="#g7070" />
    <path
       style="fill:none;fill-rule:evenodd;stroke:#000000;stroke-width:0.26458332px;stroke-linecap:butt;stroke-linejoin:miter;stroke-opacity:1"
       d="m 135.37423,105.494 -18.07137,0.15992"
       id="path7243"
       inkscape:connector-type="polyline"
       inkscape:connector-curvature="0"
       inkscape:connection-end="#g7070" />
    <path
       style="fill:none;fill-rule:evenodd;stroke:#000000;stroke-width:0.26458332px;stroke-linecap:butt;stroke-linejoin:miter;stroke-opacity:1"
       d="m 108.92397,111.08129 -8.29794,18.0895"
       id="path7245"
       inkscape:connector-type="polyline"
       inkscape:connector-curvature="0"
       inkscape:connection-start="#g7070"
       inkscape:connection-end="#path6974-2-8-9" />
    <path
       style="fill:none;fill-rule:evenodd;stroke:#000000;stroke-width:0.26458332px;stroke-linecap:butt;stroke-linejoin:miter;stroke-opacity:1"
       d="m 70.197177,128.29522 22.1921,4.9606"
       id="path7247"
       inkscape:connector-type="polyline"
       inkscape:connector-curvature="0"
       inkscape:connection-start="#g7074"
       inkscape:connection-end="#path6974-2-8-9" />
    <path
       style="fill:none;fill-rule:evenodd;stroke:#000000;stroke-width:0.26458332px;stroke-linecap:butt;stroke-linejoin:miter;stroke-opacity:1"
       d="m 102.8341,138.16885 24.78389,19.2123"
       id="path7249"
       inkscape:connector-type="polyline"
       inkscape:connector-curvature="0"
       inkscape:connection-start="#path6974-2-8-9"
       inkscape:connection-end="#path6974-2-8-9-2" />
    <text
       xml:space="preserve"
       style="font-style:normal;font-weight:normal;font-size:7.27604151px;line-height:125%;font-family:sans-serif;letter-spacing:0px;word-spacing:0px;writing-mode:lr-tb;fill:#000000;fill-opacity:1;stroke:none;stroke-width:0.26458332px;stroke-linecap:butt;stroke-linejoin:miter;stroke-opacity:1"
       x="19.843752"
       y="147.7751"
       id="text7300"><tspan
         sodipodi:role="line"
         id="tspan7298"
         x="19.843752"
         y="147.7751"
         style="font-size:4.93888903px;stroke-width:0.26458332px">VM1</tspan></text>
    <text
       xml:space="preserve"
       style="font-style:normal;font-weight:normal;font-size:7.27604151px;line-height:125%;font-family:sans-serif;letter-spacing:0px;word-spacing:0px;writing-mode:lr-tb;fill:#000000;fill-opacity:1;stroke:none;stroke-width:0.26458332px;stroke-linecap:butt;stroke-linejoin:miter;stroke-opacity:1"
       x="93.700554"
       y="71.316704"
       id="text7300-2"><tspan
         sodipodi:role="line"
         id="tspan7298-7"
         x="93.700554"
         y="71.316704"
         style="font-size:4.93888903px;stroke-width:0.26458332px">VM2</tspan></text>
    <text
       xml:space="preserve"
       style="font-style:normal;font-weight:normal;font-size:7.27604151px;line-height:125%;font-family:sans-serif;letter-spacing:0px;word-spacing:0px;writing-mode:lr-tb;fill:#000000;fill-opacity:1;stroke:none;stroke-width:0.26458332px;stroke-linecap:butt;stroke-linejoin:miter;stroke-opacity:1"
       x="24.115129"
       y="110.73962"
       id="text7300-8"><tspan
         sodipodi:role="line"
         id="tspan7298-6"
         x="24.115129"
         y="110.73962"
         style="font-size:4.93888903px;stroke-width:0.26458332px">VM3</tspan></text>
    <text
       xml:space="preserve"
       style="font-style:normal;font-weight:normal;font-size:7.27604151px;line-height:125%;font-family:sans-serif;letter-spacing:0px;word-spacing:0px;writing-mode:lr-tb;fill:#000000;fill-opacity:1;stroke:none;stroke-width:0.26458332px;stroke-linecap:butt;stroke-linejoin:miter;stroke-opacity:1"
       x="128.36096"
       y="76.343796"
       id="text7300-7"><tspan
         sodipodi:role="line"
         id="tspan7298-70"
         x="128.36096"
         y="76.343796"
         style="font-size:4.93888903px;stroke-width:0.26458332px">VM4</tspan></text>
    <text
       xml:space="preserve"
       style="font-style:normal;font-weight:normal;font-size:7.27604151px;line-height:125%;font-family:sans-serif;letter-spacing:0px;word-spacing:0px;writing-mode:lr-tb;fill:#000000;fill-opacity:1;stroke:none;stroke-width:0.26458332px;stroke-linecap:butt;stroke-linejoin:miter;stroke-opacity:1"
       x="56.394299"
       y="92.747963"
       id="text7300-9"><tspan
         sodipodi:role="line"
         id="tspan7298-4"
         x="56.394299"
         y="92.747963"
         style="font-size:4.93888903px;stroke-width:0.26458332px">VM5</tspan></text>
    <text
       xml:space="preserve"
       style="font-style:normal;font-weight:normal;font-size:7.27604151px;line-height:125%;font-family:sans-serif;letter-spacing:0px;word-spacing:0px;writing-mode:lr-tb;fill:#000000;fill-opacity:1;stroke:none;stroke-width:0.26458332px;stroke-linecap:butt;stroke-linejoin:miter;stroke-opacity:1"
       x="147.94012"
       y="102.80213"
       id="text7300-5"><tspan
         sodipodi:role="line"
         id="tspan7298-42"
         x="147.94012"
         y="102.80213"
         style="font-size:4.93888903px;stroke-width:0.26458332px">VM6</tspan></text>
    <text
       xml:space="preserve"
       style="font-style:normal;font-weight:normal;font-size:7.27604151px;line-height:125%;font-family:sans-serif;letter-spacing:0px;word-spacing:0px;writing-mode:lr-tb;fill:#000000;fill-opacity:1;stroke:none;stroke-width:0.26458332px;stroke-linecap:butt;stroke-linejoin:miter;stroke-opacity:1"
       x="55.5625"
       y="140.63126"
       id="text7354"><tspan
         sodipodi:role="line"
         id="tspan7352"
         x="55.5625"
         y="140.63126"
         style="stroke-width:0.26458332px">Nw1</tspan></text>
    <text
       xml:space="preserve"
       style="font-style:normal;font-weight:normal;font-size:7.27604151px;line-height:125%;font-family:sans-serif;letter-spacing:0px;word-spacing:0px;writing-mode:lr-tb;fill:#000000;fill-opacity:1;stroke:none;stroke-width:0.26458332px;stroke-linecap:butt;stroke-linejoin:miter;stroke-opacity:1"
       x="109.70503"
       y="118.41254"
       id="text7354-2"><tspan
         sodipodi:role="line"
         id="tspan7352-3"
         x="109.70503"
         y="118.41254"
         style="stroke-width:0.26458332px">Nw2</tspan></text>
    <text
       xml:space="preserve"
       style="font-style:normal;font-weight:normal;font-size:7.27604151px;line-height:125%;font-family:sans-serif;letter-spacing:0px;word-spacing:0px;writing-mode:lr-tb;fill:#000000;fill-opacity:1;stroke:none;stroke-width:0.26458332px;stroke-linecap:butt;stroke-linejoin:miter;stroke-opacity:1"
       x="104.42161"
       y="137.63968"
       id="text7376"><tspan
         sodipodi:role="line"
         id="tspan7374"
         x="104.42161"
         y="137.63968"
         style="font-size:4.93888903px;stroke-width:0.26458332px">router</tspan></text>
    <text
       xml:space="preserve"
       style="font-style:normal;font-weight:normal;font-size:7.27604151px;line-height:125%;font-family:sans-serif;letter-spacing:0px;word-spacing:0px;writing-mode:lr-tb;fill:#000000;fill-opacity:1;stroke:none;stroke-width:0.26458332px;stroke-linecap:butt;stroke-linejoin:miter;stroke-opacity:1"
       x="138.90625"
       y="162.32709"
       id="text7380"><tspan
         sodipodi:role="line"
         id="tspan7378"
         x="138.90625"
         y="162.32709"
         style="font-size:4.93888903px;stroke-width:0.26458332px">public</tspan></text>
  </g>
</svg>
